<svg xmlns="http://www.w3.org/2000/svg" viewBox="0 0 1440 1000" role="img" aria-labelledby="title desc">
  <title id="title">企业知识助手 0.6.10 会议纪要界面示意</title>
  <desc id="desc">脱敏界面示意：会议纪要版本、引用、结构化待办和知识更新建议。</desc>
  <style>text{font-family:"PingFang SC","Noto Sans CJK SC","Microsoft YaHei",sans-serif}.muted{fill:#64748b;font-size:14px}.label{fill:#0f172a;font-size:18px;font-weight:600}.blue{fill:#2463a0;font-size:15px;font-weight:600}.green{fill:#16845c;font-size:15px;font-weight:600}.orange{fill:#9a6700;font-size:15px;font-weight:600}</style>
  <rect width="1440" height="1000" fill="#fff"/><rect width="220" height="1000" fill="#f5f8fc"/><text x="20" y="36" class="label">企业知识助手</text><text x="20" y="84" class="label" style="font-size:15px">对话</text><rect x="12" y="106" width="196" height="52" rx="7" fill="#e8f2fc"/><text x="28" y="137" class="label" style="font-size:15px">会议技能验收</text><text x="22" y="190" class="muted">已归档　　　　　　　　　7</text><text x="22" y="234" class="muted">后台任务　　　　　　　　 2</text>
  <text x="460" y="74" class="label" style="font-size:25px">知识服务试点讨论纪要</text><text x="460" y="104" class="muted">完成 · 最近更新 2026/9/23 19:09 · 版本 6</text><rect x="460" y="130" width="112" height="38" rx="7" fill="#fff" stroke="#cbd5e1"/><text x="483" y="155" class="blue">编辑正文</text><rect x="584" y="130" width="112" height="38" rx="7" fill="#fff" stroke="#cbd5e1"/><text x="607" y="155" class="blue">继续修改</text><rect x="708" y="130" width="82" height="38" rx="7" fill="#fff" stroke="#cbd5e1"/><text x="730" y="155" class="blue">复制</text><rect x="802" y="130" width="118" height="38" rx="7" fill="#fff" stroke="#cbd5e1"/><text x="819" y="155" class="blue">导出 Word</text><text x="938" y="155" class="green">已保存</text><line x1="460" y1="192" x2="1330" y2="192" stroke="#e2e8f0"/>
  <text x="460" y="238" class="label">会议概况</text><text x="480" y="274" class="muted">• 会议时间：2026 年 9 月 20 日 08:00　[ S1-P2 ]</text><text x="480" y="304" class="muted">• 参与者：程峰、演示成员甲　[ S1-P2 ]</text><text x="460" y="354" class="label">明确决定</text><text x="480" y="390" class="muted">• 先核对新版操作手册，再开展内部试用　[ S1-P4 ]</text>
  <rect x="460" y="430" width="870" height="184" rx="10" fill="#f8fafc" stroke="#e2e8f0"/><text x="480" y="466" class="label">待办事项</text><text x="480" y="500" class="muted">跟进负责人：程峰。确认后才会发送飞书。</text><line x1="480" y1="522" x2="1308" y2="522" stroke="#e2e8f0"/><text x="480" y="554" class="label" style="font-size:16px">核对新版操作手册</text><text x="820" y="554" class="blue">程峰</text><text x="960" y="554" class="muted">2026-09-21</text><text x="1170" y="554" class="green">已完成</text><text x="480" y="590" class="label" style="font-size:16px">确定试用人数</text><text x="820" y="590" class="muted">待分配</text><text x="960" y="590" class="orange">期限待确认</text><text x="1170" y="590" class="orange">待确认</text>
  <rect x="460" y="644" width="870" height="142" rx="10" fill="#fffaf0" stroke="#ead9ad"/><text x="480" y="680" class="label">知识更新建议</text><text x="480" y="714" class="muted">会议依据、正式知识依据和助手建议分开呈现。</text><text x="480" y="746" class="orange">暂无足够可靠资料 · 需知识维护人员核对</text><text x="480" y="778" class="muted">会议不会直接发布为正式知识。</text><text x="460" y="858" class="muted">点击 [S1-Px] 可展开原文片段；刷新可恢复后台任务，失败可重试。</text><text x="460" y="900" class="muted">版本：企业知识助手 0.6.10 · 界面依据线上 2026-09-24 核对</text>
</svg>
